<svg width="409" height="78" viewBox="0 0 409 78" fill="none" xmlns="http://www.w3.org/2000/svg">
<path d="M173.18 40.0078V52.5C172.758 53.125 172.086 53.8281 171.164 54.6094C170.242 55.375 168.969 56.0469 167.344 56.625C165.734 57.1875 163.656 57.4688 161.109 57.4688C159.031 57.4688 157.117 57.1094 155.367 56.3906C153.633 55.6562 152.125 54.5938 150.844 53.2031C149.578 51.7969 148.594 50.0938 147.891 48.0938C147.203 46.0781 146.859 43.7969 146.859 41.25V38.6016C146.859 36.0547 147.156 33.7812 147.75 31.7812C148.359 29.7812 149.25 28.0859 150.422 26.6953C151.594 25.2891 153.031 24.2266 154.734 23.5078C156.438 22.7734 158.391 22.4062 160.594 22.4062C163.203 22.4062 165.383 22.8594 167.133 23.7656C168.898 24.6562 170.273 25.8906 171.258 27.4688C172.258 29.0469 172.898 30.8438 173.18 32.8594H168.656C168.453 31.625 168.047 30.5 167.438 29.4844C166.844 28.4688 165.992 27.6562 164.883 27.0469C163.773 26.4219 162.344 26.1094 160.594 26.1094C159.016 26.1094 157.648 26.3984 156.492 26.9766C155.336 27.5547 154.383 28.3828 153.633 29.4609C152.883 30.5391 152.32 31.8438 151.945 33.375C151.586 34.9062 151.406 36.6328 151.406 38.5547V41.25C151.406 43.2188 151.633 44.9766 152.086 46.5234C152.555 48.0703 153.219 49.3906 154.078 50.4844C154.938 51.5625 155.961 52.3828 157.148 52.9453C158.352 53.5078 159.68 53.7891 161.133 53.7891C162.742 53.7891 164.047 53.6562 165.047 53.3906C166.047 53.1094 166.828 52.7812 167.391 52.4062C167.953 52.0156 168.383 51.6484 168.68 51.3047V43.6641H160.781V40.0078H173.18ZM190.547 57.4688C188.781 57.4688 187.18 57.1719 185.742 56.5781C184.32 55.9688 183.094 55.1172 182.062 54.0234C181.047 52.9297 180.266 51.6328 179.719 50.1328C179.172 48.6328 178.898 46.9922 178.898 45.2109V44.2266C178.898 42.1641 179.203 40.3281 179.812 38.7188C180.422 37.0938 181.25 35.7188 182.297 34.5938C183.344 33.4688 184.531 32.6172 185.859 32.0391C187.188 31.4609 188.562 31.1719 189.984 31.1719C191.797 31.1719 193.359 31.4844 194.672 32.1094C196 32.7344 197.086 33.6094 197.93 34.7344C198.773 35.8438 199.398 37.1562 199.805 38.6719C200.211 40.1719 200.414 41.8125 200.414 43.5938V45.5391H181.477V42H196.078V41.6719C196.016 40.5469 195.781 39.4531 195.375 38.3906C194.984 37.3281 194.359 36.4531 193.5 35.7656C192.641 35.0781 191.469 34.7344 189.984 34.7344C189 34.7344 188.094 34.9453 187.266 35.3672C186.438 35.7734 185.727 36.3828 185.133 37.1953C184.539 38.0078 184.078 39 183.75 40.1719C183.422 41.3438 183.258 42.6953 183.258 44.2266V45.2109C183.258 46.4141 183.422 47.5469 183.75 48.6094C184.094 49.6562 184.586 50.5781 185.227 51.375C185.883 52.1719 186.672 52.7969 187.594 53.25C188.531 53.7031 189.594 53.9297 190.781 53.9297C192.312 53.9297 193.609 53.6172 194.672 52.9922C195.734 52.3672 196.664 51.5312 197.461 50.4844L200.086 52.5703C199.539 53.3984 198.844 54.1875 198 54.9375C197.156 55.6875 196.117 56.2969 194.883 56.7656C193.664 57.2344 192.219 57.4688 190.547 57.4688ZM216.094 31.6406V34.9688H202.383V31.6406H216.094ZM207.023 25.4766H211.359V50.7188C211.359 51.5781 211.492 52.2266 211.758 52.6641C212.023 53.1016 212.367 53.3906 212.789 53.5312C213.211 53.6719 213.664 53.7422 214.148 53.7422C214.508 53.7422 214.883 53.7109 215.273 53.6484C215.68 53.5703 215.984 53.5078 216.188 53.4609L216.211 57C215.867 57.1094 215.414 57.2109 214.852 57.3047C214.305 57.4141 213.641 57.4688 212.859 57.4688C211.797 57.4688 210.82 57.2578 209.93 56.8359C209.039 56.4141 208.328 55.7109 207.797 54.7266C207.281 53.7266 207.023 52.3828 207.023 50.6953V25.4766ZM274.312 57.4688C272.547 57.4688 270.945 57.1719 269.508 56.5781C268.086 55.9688 266.859 55.1172 265.828 54.0234C264.812 52.9297 264.031 51.6328 263.484 50.1328C262.938 48.6328 262.664 46.9922 262.664 45.2109V44.2266C262.664 42.1641 262.969 40.3281 263.578 38.7188C264.188 37.0938 265.016 35.7188 266.062 34.5938C267.109 33.4688 268.297 32.6172 269.625 32.0391C270.953 31.4609 272.328 31.1719 273.75 31.1719C275.562 31.1719 277.125 31.4844 278.438 32.1094C279.766 32.7344 280.852 33.6094 281.695 34.7344C282.539 35.8438 283.164 37.1562 283.57 38.6719C283.977 40.1719 284.18 41.8125 284.18 43.5938V45.5391H265.242V42H279.844V41.6719C279.781 40.5469 279.547 39.4531 279.141 38.3906C278.75 37.3281 278.125 36.4531 277.266 35.7656C276.406 35.0781 275.234 34.7344 273.75 34.7344C272.766 34.7344 271.859 34.9453 271.031 35.3672C270.203 35.7734 269.492 36.3828 268.898 37.1953C268.305 38.0078 267.844 39 267.516 40.1719C267.188 41.3438 267.023 42.6953 267.023 44.2266V45.2109C267.023 46.4141 267.188 47.5469 267.516 48.6094C267.859 49.6562 268.352 50.5781 268.992 51.375C269.648 52.1719 270.438 52.7969 271.359 53.25C272.297 53.7031 273.359 53.9297 274.547 53.9297C276.078 53.9297 277.375 53.6172 278.438 52.9922C279.5 52.3672 280.43 51.5312 281.227 50.4844L283.852 52.5703C283.305 53.3984 282.609 54.1875 281.766 54.9375C280.922 55.6875 279.883 56.2969 278.648 56.7656C277.43 57.2344 275.984 57.4688 274.312 57.4688ZM293.578 35.625V57H289.242V31.6406H293.461L293.578 35.625ZM301.5 31.5L301.477 35.5312C301.117 35.4531 300.773 35.4062 300.445 35.3906C300.133 35.3594 299.773 35.3438 299.367 35.3438C298.367 35.3438 297.484 35.5 296.719 35.8125C295.953 36.125 295.305 36.5625 294.773 37.125C294.242 37.6875 293.82 38.3594 293.508 39.1406C293.211 39.9062 293.016 40.75 292.922 41.6719L291.703 42.375C291.703 40.8438 291.852 39.4062 292.148 38.0625C292.461 36.7188 292.938 35.5312 293.578 34.5C294.219 33.4531 295.031 32.6406 296.016 32.0625C297.016 31.4688 298.203 31.1719 299.578 31.1719C299.891 31.1719 300.25 31.2109 300.656 31.2891C301.062 31.3516 301.344 31.4219 301.5 31.5ZM309.867 21V57H305.508V21H309.867ZM325.359 31.6406L314.297 43.4766L308.109 49.8984L307.758 45.2812L312.188 39.9844L320.062 31.6406H325.359ZM321.398 57L312.352 44.9062L314.602 41.0391L326.508 57H321.398ZM334.547 31.6406V57H330.188V31.6406H334.547ZM329.859 24.9141C329.859 24.2109 330.07 23.6172 330.492 23.1328C330.93 22.6484 331.57 22.4062 332.414 22.4062C333.242 22.4062 333.875 22.6484 334.312 23.1328C334.766 23.6172 334.992 24.2109 334.992 24.9141C334.992 25.5859 334.766 26.1641 334.312 26.6484C333.875 27.1172 333.242 27.3516 332.414 27.3516C331.57 27.3516 330.93 27.1172 330.492 26.6484C330.07 26.1641 329.859 25.5859 329.859 24.9141ZM345.844 37.0547V57H341.508V31.6406H345.609L345.844 37.0547ZM344.812 43.3594L343.008 43.2891C343.023 41.5547 343.281 39.9531 343.781 38.4844C344.281 37 344.984 35.7109 345.891 34.6172C346.797 33.5234 347.875 32.6797 349.125 32.0859C350.391 31.4766 351.789 31.1719 353.32 31.1719C354.57 31.1719 355.695 31.3438 356.695 31.6875C357.695 32.0156 358.547 32.5469 359.25 33.2812C359.969 34.0156 360.516 34.9688 360.891 36.1406C361.266 37.2969 361.453 38.7109 361.453 40.3828V57H357.094V40.3359C357.094 39.0078 356.898 37.9453 356.508 37.1484C356.117 36.3359 355.547 35.75 354.797 35.3906C354.047 35.0156 353.125 34.8281 352.031 34.8281C350.953 34.8281 349.969 35.0547 349.078 35.5078C348.203 35.9609 347.445 36.5859 346.805 37.3828C346.18 38.1797 345.688 39.0938 345.328 40.125C344.984 41.1406 344.812 42.2188 344.812 43.3594Z" fill="#F5F5F5"/>
<path d="M230.812 46.6875L237.586 22.875H240.867L238.969 32.1328L231.68 57H228.422L230.812 46.6875ZM223.805 22.875L229.195 46.2188L230.812 57H227.578L219.305 22.875H223.805ZM249.633 46.1953L254.906 22.875H259.43L251.18 57H247.945L249.633 46.1953ZM241.359 22.875L247.945 46.6875L250.336 57H247.078L240.047 32.1328L238.125 22.875H241.359Z" fill="#149D91"/>
<path d="M103.874 57.8837L113.964 77.9047L133.462 39.0502L113.903 0.090021L103.67 20.1621L113.342 39.065L103.874 57.8837Z" fill="#057A72"/>
<path d="M30.8745 60.355L30.868 60.355L20.142 39.01L30.868 17.6634L19.5605 0.100551L4.76864e-07 39.0242L19.5545 77.9373L19.5719 77.9373L30.8821 60.3697L30.8745 60.355Z" fill="url(#paint0_linear_3_12)"/>
<path d="M93.8511 77.89L84.1638 58.686L94.2407 38.933L113.989 77.89L93.8511 77.89Z" fill="url(#paint1_radial_3_12)"/>
<path d="M31.263 17.9039C41.8263 17.9039 62.9528 17.9039 62.9528 17.9039L73.7786 39.3747L83.9487 19.6301L74.2636 0.406676L19.558 0.406675L30.8719 17.9039L31.263 17.9039Z" fill="url(#paint2_radial_3_12)"/>
<path d="M93.7845 0.100552L62.8862 60.359L30.8766 60.359L19.5704 77.9373L19.8558 77.9373L74.1969 77.9373L113.923 0.100552L93.7845 0.100552Z" fill="#EEF2F5"/>
<defs>
<linearGradient id="paint0_linear_3_12" x1="-0.867125" y1="39.0189" x2="132.41" y2="39.0189" gradientUnits="userSpaceOnUse">
<stop stop-color="#057A72"/>
<stop offset="0.847918" stop-color="#013342"/>
<stop offset="1" stop-color="#002639"/>
</linearGradient>
<radialGradient id="paint1_radial_3_12" cx="0" cy="0" r="1" gradientUnits="userSpaceOnUse" gradientTransform="translate(126.813 71.492) rotate(-90) scale(115.146 88.1537)">
<stop stop-color="#02A499"/>
<stop offset="1" stop-color="#149D91"/>
</radialGradient>
<radialGradient id="paint2_radial_3_12" cx="0" cy="0" r="1" gradientUnits="userSpaceOnUse" gradientTransform="translate(-8.12979 32.9748) rotate(-90) scale(139.117 229.877)">
<stop stop-color="#02A499"/>
<stop offset="1" stop-color="#149D91"/>
</radialGradient>
</defs>
</svg>
