<svg width="234" height="63" viewBox="0 0 234 63" fill="none" xmlns="http://www.w3.org/2000/svg">
<path d="M59.6444 29.4008L51.0719 54.0388C49.6749 58.1663 47.7699 62.6748 42.6899 62.6748C38.5624 62.6748 36.7844 59.7538 35.5144 56.1978L30.3709 40.8943L26.0529 54.0388C24.6559 58.1663 23.1319 62.6748 17.9884 62.6748C13.9879 62.6748 11.7654 59.6903 10.4954 56.1978L1.09736 29.3373C0.58936 28.0038 0.0813599 26.6068 0.0813599 25.2098C0.0813599 21.9078 3.00236 19.3043 6.24086 19.3043C10.2414 19.3043 11.6384 22.2888 12.6544 25.5908L18.0519 43.8153L24.0209 24.9558C25.1004 21.6538 26.6879 19.4948 30.4344 19.4948C33.9269 19.4948 35.5144 21.9078 36.5304 24.9558L42.6264 43.7518L47.9604 25.7178C48.9764 22.2888 50.3734 19.3043 54.4374 19.3043C57.7394 19.3043 60.6604 21.9078 60.6604 25.2733C60.5969 26.6703 60.0889 28.0673 59.6444 29.4008Z" fill="white"/>
<path d="M96.857 45.0736H74.1875C75.8385 49.6456 78.823 52.3126 83.8395 52.3126C89.6815 52.3126 92.92 48.3121 96.476 48.3121C99.143 48.3121 101.492 50.6616 101.492 53.3286C101.492 58.2181 93.936 61.2026 90.126 62.1551C87.9035 62.7266 85.554 62.9806 83.2045 62.9806C70.6315 62.9806 61.043 54.6621 61.043 41.7716C61.043 29.5796 69.298 19.1656 81.998 19.1656C93.6185 19.1656 102.254 28.7541 102.254 40.1841C102.191 43.8671 100.476 45.0736 96.857 45.0736ZM82.252 29.0716C77.426 29.0716 75.0765 32.5006 73.6795 36.6916H90.253C89.0465 32.5006 87.078 29.0716 82.252 29.0716Z" fill="white"/>
<path d="M126.475 31.0667C121.903 32.5907 118.093 33.6703 118.093 39.1313V54.4983V55.8318C118.093 59.5148 115.934 62.6263 111.997 62.6263C107.996 62.6263 105.837 59.5783 105.837 55.8318V26.3043C105.837 22.4943 107.933 19.3828 111.997 19.3828C114.981 19.3828 116.886 21.0972 118.093 23.7007C120.442 21.3512 122.919 19.0652 126.411 19.0652C129.904 19.0652 132.698 21.9227 132.698 25.3517C132.698 29.3523 129.713 30.1142 126.475 31.0667Z" fill="white"/>
<path d="M167.192 62.6567C164.208 62.6567 162.874 60.9422 161.223 58.7197L148.142 42.0192V54.4652V55.7987C148.142 59.4817 145.983 62.5932 142.046 62.5932C138.046 62.5932 135.887 59.5452 135.887 55.7987V7.85616C135.887 4.10966 138.109 1.12516 142.046 1.12516C145.983 1.12516 148.142 4.17316 148.142 7.85616V9.25316V33.8277L159.382 22.3342C161.033 20.6832 162.303 19.0957 164.843 19.0957C168.272 19.0957 170.812 21.7627 170.812 25.1917C170.812 27.7952 169.224 29.0017 167.573 30.6527L160.017 37.9552L170.685 51.2267C172.018 52.8142 173.288 54.4017 173.288 56.5607C173.288 59.9262 170.494 62.6567 167.192 62.6567Z" fill="white"/>
<path d="M182.872 62.7515C178.872 62.7515 176.776 59.7035 176.776 55.957V26.3025C176.776 22.6195 178.935 19.5715 182.872 19.5715C186.873 19.5715 188.968 22.556 188.968 26.3025V55.957C188.905 59.7035 186.809 62.7515 182.872 62.7515Z" fill="#7DE2D1"/>
<path d="M226.447 62.6567C222.446 62.6567 220.287 59.6087 220.287 55.8622V54.5287V37.3837C220.287 33.1292 218.065 29.6367 213.493 29.6367C209.429 29.6367 206.571 32.9387 206.571 36.8757V54.5287V55.8622C206.571 59.5452 204.412 62.6567 200.475 62.6567C196.475 62.6567 193.236 59.6087 193.236 55.8622V26.5887C193.236 22.7787 196.348 19.4132 200.539 19.4132C203.523 19.4132 205.111 21.0007 206.19 23.6677C209.683 20.3657 212.604 19.0957 217.43 19.0957C221.43 19.0957 225.05 20.1752 228.098 22.8422C231.908 26.1442 232.479 29.5732 232.479 34.4627V55.7987C232.479 59.4817 230.32 62.6567 226.447 62.6567Z" fill="white"/>
<path d="M199.574 13.8913C196.081 13.8913 193.287 11.0338 193.287 7.54132C193.287 4.04882 196.018 1.19132 199.574 1.19132C203.13 1.19132 205.86 4.04882 205.86 7.54132C205.86 11.0338 203.066 13.8913 199.574 13.8913Z" fill="#7DE2D1"/>
<path d="M182.872 13.9861C179.38 13.9861 176.586 11.1286 176.586 7.63614C176.586 4.14364 179.316 1.28614 182.872 1.28614C186.428 1.28614 189.159 4.14364 189.159 7.63614C189.159 11.1286 186.301 13.9861 182.872 13.9861Z" fill="white"/>
</svg>
