<svg width="153" height="41" viewBox="0 0 153 41" fill="none" xmlns="http://www.w3.org/2000/svg">
<path d="M38.9982 19.1339L33.3931 35.1681C32.4797 37.8543 31.2341 40.7884 27.9126 40.7884C25.2138 40.7884 24.0513 38.8874 23.2209 36.5732L19.8579 26.6138L17.0346 35.1681C16.1211 37.8543 15.1247 40.7884 11.7616 40.7884C9.1459 40.7884 7.69273 38.8461 6.86235 36.5732L0.7175 19.0925C0.385346 18.2247 0.0531921 17.3155 0.0531921 16.4064C0.0531921 14.2575 1.96308 12.5631 4.08056 12.5631C6.69627 12.5631 7.60969 14.5054 8.274 16.6543L11.8031 28.5147L15.7059 16.2411C16.4118 14.0922 17.4497 12.6871 19.8994 12.6871C22.1829 12.6871 23.2209 14.2575 23.8852 16.2411L27.8711 28.4734L31.3587 16.737C32.023 14.5054 32.9364 12.5631 35.5937 12.5631C37.7527 12.5631 39.6625 14.2575 39.6625 16.4477C39.621 17.3569 39.2889 18.266 38.9982 19.1339Z" fill="white"/>
<path d="M63.3296 29.3336L48.5072 29.3336C49.5867 32.309 51.5381 34.0447 54.8181 34.0447C58.6379 34.0447 60.7554 31.4412 63.0804 31.4412C64.8243 31.4412 66.3605 32.9702 66.3605 34.7059C66.3605 37.8879 61.4197 39.8302 58.9285 40.4501C57.4753 40.822 55.9391 40.9874 54.4029 40.9874C46.1821 40.9874 39.9127 35.5737 39.9127 27.1847C39.9127 19.2502 45.3102 12.4728 53.6141 12.4728C61.2121 12.4728 66.8587 18.713 66.8587 26.1515C66.8172 28.5484 65.6962 29.3336 63.3296 29.3336ZM53.7801 18.9196C50.6247 18.9196 49.0885 21.1512 48.175 23.8786L59.0116 23.8786C58.2227 21.1512 56.9356 18.9196 53.7801 18.9196Z" fill="white"/>
<path d="M82.6951 20.218C79.7057 21.2098 77.2146 21.9124 77.2146 25.4664V35.4671V36.3349C77.2146 38.7318 75.8029 40.7568 73.2287 40.7568C70.613 40.7568 69.2014 38.7731 69.2014 36.3349V17.1186C69.2014 14.6391 70.5715 12.6142 73.2287 12.6142C75.1801 12.6142 76.4257 13.7299 77.2146 15.4243C78.7508 13.8952 80.37 12.4075 82.6536 12.4075C84.9371 12.4075 86.764 14.2672 86.764 16.4987C86.764 19.1022 84.8126 19.5981 82.6951 20.218Z" fill="white"/>
<path d="M109.318 40.7766C107.367 40.7766 106.495 39.6608 105.415 38.2144L96.8624 27.3458V35.4456V36.3134C96.8624 38.7103 95.4507 40.7352 92.8765 40.7352C90.2608 40.7352 88.8492 38.7516 88.8492 36.3134V5.11273C88.8492 2.67453 90.3023 0.732242 92.8765 0.732242C95.4507 0.732242 96.8624 2.71586 96.8624 5.11273V6.02189V22.0148L104.211 14.5349C105.291 13.4605 106.121 12.4273 107.782 12.4273C110.024 12.4273 111.685 14.163 111.685 16.3946C111.685 18.0889 110.647 18.8741 109.567 19.9485L104.626 24.701L111.602 33.338C112.474 34.3711 113.304 35.4042 113.304 36.8093C113.304 38.9996 111.477 40.7766 109.318 40.7766Z" fill="white"/>
<path d="M119.57 40.8382C116.955 40.8382 115.585 38.8546 115.585 36.4164V17.1175C115.585 14.7206 116.996 12.737 119.57 12.737C122.186 12.737 123.556 14.6793 123.556 17.1175V36.4164C123.515 38.8546 122.145 40.8382 119.57 40.8382Z" fill="#7DE2D1"/>
<path d="M148.061 40.7766C145.446 40.7766 144.034 38.7929 144.034 36.3547V35.4869V24.329C144.034 21.5602 142.581 19.2873 139.591 19.2873C136.934 19.2873 135.066 21.4363 135.066 23.9984V35.4869V36.3547C135.066 38.7516 133.654 40.7766 131.08 40.7766C128.464 40.7766 126.347 38.7929 126.347 36.3547V17.3037C126.347 14.8242 128.381 12.634 131.122 12.634C133.073 12.634 134.111 13.6671 134.817 15.4028C137.1 13.2538 139.01 12.4273 142.166 12.4273C144.781 12.4273 147.148 13.1299 149.141 14.8655C151.632 17.0144 152.006 19.246 152.006 22.4281V36.3134C152.006 38.7103 150.594 40.7766 148.061 40.7766Z" fill="white"/>
<path d="M130.491 9.04037C128.207 9.04037 126.38 7.18073 126.38 4.90784C126.38 2.63494 128.165 0.775298 130.491 0.775298C132.816 0.775298 134.601 2.63494 134.601 4.90784C134.601 7.18073 132.774 9.04037 130.491 9.04037Z" fill="#7DE2D1"/>
<path d="M119.57 9.10209C117.287 9.10209 115.46 7.24245 115.46 4.96955C115.46 2.69665 117.245 0.837012 119.57 0.837012C121.895 0.837012 123.681 2.69665 123.681 4.96955C123.681 7.24245 121.812 9.10209 119.57 9.10209Z" fill="white"/>
</svg>
